<svg width="32" height="32" viewBox="0 0 32 32" fill="none" xmlns="http://www.w3.org/2000/svg">
<path d="M2.66602 22.6667C2.66602 20.1521 2.66602 18.8961 3.44735 18.1147C4.22868 17.3334 5.48468 17.3334 7.99935 17.3334H23.9993C26.514 17.3334 27.77 17.3334 28.5513 18.1147C29.3327 18.8961 29.3327 20.1521 29.3327 22.6667C29.3327 25.1814 29.3327 26.4374 28.5513 27.2187C27.77 28.0001 26.514 28.0001 23.9993 28.0001H7.99935C5.48468 28.0001 4.22868 28.0001 3.44735 27.2187C2.66602 26.4374 2.66602 25.1814 2.66602 22.6667ZM2.66602 8.00008C2.66602 5.48541 2.66602 4.22941 3.44735 3.44808C4.22868 2.66675 5.48468 2.66675 7.99935 2.66675H23.9993C26.514 2.66675 27.77 2.66675 28.5513 3.44808C29.3327 4.22941 29.3327 5.48541 29.3327 8.00008C29.3327 10.5147 29.3327 11.7707 28.5513 12.5521C27.77 13.3334 26.514 13.3334 23.9993 13.3334H7.99935C5.48468 13.3334 4.22868 13.3334 3.44735 12.5521C2.66602 11.7707 2.66602 10.5147 2.66602 8.00008Z" stroke="#4F4B5C" stroke-width="2"/>
<path d="M14.6667 8H24M8 8H10.6667M14.6667 22.6667H24M8 22.6667H10.6667" stroke="#4F4B5C" stroke-width="2" stroke-linecap="round"/>
</svg>
