<svg width="24" height="24" viewBox="0 0 24 24" fill="none" xmlns="http://www.w3.org/2000/svg">
<path d="M1.43099e-07 12C1.56235e-07 10.8984 0.140625 9.83594 0.421875 8.8125C0.703125 7.78906 1.10547 6.83203 1.62891 5.94141C2.15234 5.05078 2.77734 4.24219 3.50391 3.51563C4.23047 2.78906 5.04297 2.16406 5.94141 1.64063C6.83984 1.11719 7.79688 0.714844 8.8125 0.433594C9.82813 0.152344 10.8906 0.00781263 12 1.43099e-07C13.1016 1.56235e-07 14.1641 0.140625 15.1875 0.421875C16.2109 0.703125 17.168 1.10547 18.0586 1.62891C18.9492 2.15234 19.7578 2.77734 20.4844 3.50391C21.2109 4.23047 21.8359 5.04297 22.3594 5.94141C22.8828 6.83984 23.2852 7.79688 23.5664 8.8125C23.8477 9.82813 23.9922 10.8906 24 12C24 12.4141 23.9219 12.8008 23.7656 13.1602C23.6094 13.5195 23.3945 13.8359 23.1211 14.1094C22.8477 14.3828 22.5313 14.5977 22.1719 14.7539C21.8125 14.9102 21.4219 14.9922 21 15C20.6172 15 20.2852 14.9648 20.0039 14.8945C19.7227 14.8242 19.4609 14.7305 19.2188 14.6133C18.9766 14.4961 18.7578 14.375 18.5625 14.25C18.3672 14.125 18.1641 14.0039 17.9531 13.8867C17.7422 13.7695 17.5234 13.6797 17.2969 13.6172C17.0703 13.5547 16.8047 13.5156 16.5 13.5C16.0938 13.5 15.707 13.5781 15.3398 13.7344C14.9727 13.8906 14.6563 14.1055 14.3906 14.3789C14.125 14.6523 13.9102 14.9727 13.7461 15.3398C13.582 15.707 13.5 16.0938 13.5 16.5C13.5 16.7969 13.5352 17.0586 13.6055 17.2852C13.6758 17.5117 13.7695 17.7305 13.8867 17.9414C14.0039 18.1523 14.125 18.3594 14.25 18.5625C14.375 18.7656 14.4961 18.9844 14.6133 19.2188C14.7305 19.4531 14.8203 19.7148 14.8828 20.0039C14.9453 20.293 14.9844 20.625 15 21C15 21.4141 14.9219 21.8008 14.7656 22.1602C14.6094 22.5195 14.3945 22.8359 14.1211 23.1094C13.8477 23.3828 13.5312 23.5977 13.1719 23.7539C12.8125 23.9102 12.4219 23.9922 12 24C10.8984 24 9.83594 23.8594 8.8125 23.5781C7.78906 23.2969 6.83203 22.8945 5.94141 22.3711C5.05078 21.8477 4.24219 21.2227 3.51563 20.4961C2.78906 19.7695 2.16406 18.957 1.64063 18.0586C1.11719 17.1602 0.714844 16.207 0.433594 15.1992C0.152344 14.1914 0.00781263 13.125 1.43099e-07 12ZM22.5 12C22.5 11.0391 22.375 10.1133 22.125 9.22266C21.875 8.33203 21.5234 7.49609 21.0703 6.71484C20.6172 5.93359 20.0664 5.22266 19.418 4.58203C18.7695 3.94141 18.0625 3.39453 17.2969 2.94141C16.5313 2.48828 15.6953 2.13281 14.7891 1.875C13.8828 1.61719 12.9531 1.49219 12 1.5C11.0391 1.5 10.1133 1.625 9.22266 1.875C8.33203 2.125 7.49609 2.47656 6.71484 2.92969C5.93359 3.38281 5.22266 3.93359 4.58203 4.58203C3.94141 5.23047 3.39453 5.9375 2.94141 6.70313C2.48828 7.46875 2.13281 8.30469 1.875 9.21094C1.61719 10.1172 1.49219 11.0469 1.5 12C1.5 12.9609 1.625 13.8867 1.875 14.7773C2.125 15.668 2.47656 16.5039 2.92969 17.2852C3.38281 18.0664 3.93359 18.7773 4.58203 19.418C5.23047 20.0586 5.9375 20.6055 6.70313 21.0586C7.46875 21.5117 8.30469 21.8672 9.21094 22.125C10.1172 22.3828 11.0469 22.5078 12 22.5C12.2109 22.5 12.4063 22.4609 12.5859 22.3828C12.7656 22.3047 12.9219 22.1992 13.0547 22.0664C13.1875 21.9336 13.2969 21.7734 13.3828 21.5859C13.4688 21.3984 13.5078 21.2031 13.5 21C13.5 20.7031 13.4648 20.4414 13.3945 20.2148C13.3242 19.9883 13.2305 19.7695 13.1133 19.5586C12.9961 19.3477 12.875 19.1445 12.75 18.9492C12.625 18.7539 12.5039 18.5391 12.3867 18.3047C12.2695 18.0703 12.1797 17.8086 12.1172 17.5195C12.0547 17.2305 12.0156 16.8906 12 16.5C12 15.875 12.1172 15.2891 12.3516 14.7422C12.5859 14.1953 12.9063 13.7188 13.3125 13.3125C13.7188 12.9063 14.1953 12.5859 14.7422 12.3516C15.2891 12.1172 15.875 12 16.5 12C16.8828 12 17.2188 12.0352 17.5078 12.1055C17.7969 12.1758 18.0586 12.2695 18.293 12.3867C18.5273 12.5039 18.7422 12.625 18.9375 12.75C19.1328 12.875 19.3359 12.9961 19.5469 13.1133C19.7578 13.2305 19.9766 13.3203 20.2031 13.3828C20.4297 13.4453 20.6953 13.4844 21 13.5C21.2109 13.5 21.4063 13.4609 21.5859 13.3828C21.7656 13.3047 21.9219 13.1992 22.0547 13.0664C22.1875 12.9336 22.2969 12.7734 22.3828 12.5859C22.4688 12.3984 22.5078 12.2031 22.5 12ZM7.5 18C7.5 17.7891 7.53906 17.5938 7.61719 17.4141C7.69531 17.2344 7.80078 17.0781 7.93359 16.9453C8.06641 16.8125 8.22656 16.7031 8.41406 16.6172C8.60156 16.5313 8.79688 16.4922 9 16.5C9.21094 16.5 9.40625 16.5391 9.58594 16.6172C9.76563 16.6953 9.92188 16.8008 10.0547 16.9336C10.1875 17.0664 10.2969 17.2266 10.3828 17.4141C10.4688 17.6016 10.5078 17.7969 10.5 18C10.5 18.2109 10.4609 18.4063 10.3828 18.5859C10.3047 18.7656 10.1992 18.9219 10.0664 19.0547C9.93359 19.1875 9.77344 19.2969 9.58594 19.3828C9.39844 19.4688 9.20313 19.5078 9 19.5C8.78906 19.5 8.59375 19.4609 8.41406 19.3828C8.23438 19.3047 8.07813 19.1992 7.94531 19.0664C7.8125 18.9336 7.70313 18.7734 7.61719 18.5859C7.53125 18.3984 7.49219 18.2031 7.5 18ZM4.5 13.5C4.5 13.2891 4.53906 13.0938 4.61719 12.9141C4.69531 12.7344 4.80078 12.5781 4.93359 12.4453C5.06641 12.3125 5.22656 12.2031 5.41406 12.1172C5.60156 12.0313 5.79688 11.9922 6 12C6.21094 12 6.40625 12.0391 6.58594 12.1172C6.76563 12.1953 6.92188 12.3008 7.05469 12.4336C7.1875 12.5664 7.29688 12.7266 7.38281 12.9141C7.46875 13.1016 7.50781 13.2969 7.5 13.5C7.5 13.7109 7.46094 13.9063 7.38281 14.0859C7.30469 14.2656 7.19922 14.4219 7.06641 14.5547C6.93359 14.6875 6.77344 14.7969 6.58594 14.8828C6.39844 14.9688 6.20313 15.0078 6 15C5.78906 15 5.59375 14.9609 5.41406 14.8828C5.23438 14.8047 5.07813 14.6992 4.94531 14.5664C4.8125 14.4336 4.70313 14.2734 4.61719 14.0859C4.53125 13.8984 4.49219 13.7031 4.5 13.5ZM9 7.5C9 7.71094 8.96094 7.90625 8.88281 8.08594C8.80469 8.26563 8.69922 8.42188 8.56641 8.55469C8.43359 8.6875 8.27344 8.79688 8.08594 8.88281C7.89844 8.96875 7.70313 9.00781 7.5 9C7.28906 9 7.09375 8.96094 6.91406 8.88281C6.73438 8.80469 6.57813 8.69922 6.44531 8.56641C6.3125 8.43359 6.20313 8.27344 6.11719 8.08594C6.03125 7.89844 5.99219 7.70313 6 7.5C6 7.28906 6.03906 7.09375 6.11719 6.91406C6.19531 6.73438 6.30078 6.57813 6.43359 6.44531C6.56641 6.3125 6.72656 6.20313 6.91406 6.11719C7.10156 6.03125 7.29688 5.99219 7.5 6C7.71094 6 7.90625 6.03906 8.08594 6.11719C8.26563 6.19531 8.42188 6.30078 8.55469 6.43359C8.6875 6.56641 8.79688 6.72656 8.88281 6.91406C8.96875 7.10156 9.00781 7.29688 9 7.5ZM12 6C12 5.78906 12.0391 5.59375 12.1172 5.41406C12.1953 5.23438 12.3008 5.07813 12.4336 4.94531C12.5664 4.8125 12.7266 4.70313 12.9141 4.61719C13.1016 4.53125 13.2969 4.49219 13.5 4.5C13.7109 4.5 13.9063 4.53906 14.0859 4.61719C14.2656 4.69531 14.4219 4.80078 14.5547 4.93359C14.6875 5.06641 14.7969 5.22656 14.8828 5.41406C14.9688 5.60156 15.0078 5.79688 15 6C15 6.21094 14.9609 6.40625 14.8828 6.58594C14.8047 6.76563 14.6992 6.92188 14.5664 7.05469C14.4336 7.1875 14.2734 7.29688 14.0859 7.38281C13.8984 7.46875 13.7031 7.50781 13.5 7.5C13.2891 7.5 13.0938 7.46094 12.9141 7.38281C12.7344 7.30469 12.5781 7.19922 12.4453 7.06641C12.3125 6.93359 12.2031 6.77344 12.1172 6.58594C12.0313 6.39844 11.9922 6.20313 12 6ZM16.5 9C16.5 8.78906 16.5391 8.59375 16.6172 8.41406C16.6953 8.23438 16.8008 8.07813 16.9336 7.94531C17.0664 7.8125 17.2266 7.70313 17.4141 7.61719C17.6016 7.53125 17.7969 7.49219 18 7.5C18.2109 7.5 18.4063 7.53906 18.5859 7.61719C18.7656 7.69531 18.9219 7.80078 19.0547 7.93359C19.1875 8.06641 19.2969 8.22656 19.3828 8.41406C19.4688 8.60156 19.5078 8.79688 19.5 9C19.5 9.21094 19.4609 9.40625 19.3828 9.58594C19.3047 9.76563 19.1992 9.92188 19.0664 10.0547C18.9336 10.1875 18.7734 10.2969 18.5859 10.3828C18.3984 10.4688 18.2031 10.5078 18 10.5C17.7891 10.5 17.5938 10.4609 17.4141 10.3828C17.2344 10.3047 17.0781 10.1992 16.9453 10.0664C16.8125 9.93359 16.7031 9.77344 16.6172 9.58594C16.5313 9.39844 16.4922 9.20313 16.5 9Z" fill="#4F4B5C"/>
</svg>
