<svg width="26" height="15" viewBox="0 0 26 15" fill="none" xmlns="http://www.w3.org/2000/svg">
<path d="M3.19875 7.5L8.36542 12.6667C8.60986 12.9111 8.73208 13.2222 8.73208 13.6C8.73208 13.9778 8.60986 14.2889 8.36542 14.5333C8.12097 14.7778 7.80986 14.9 7.43208 14.9C7.0543 14.9 6.74319 14.7778 6.49875 14.5333L0.365415 8.4C0.232082 8.26667 0.137415 8.12222 0.0814152 7.96667C0.0254152 7.81111 -0.00169573 7.64444 8.20518e-05 7.46667C0.00185983 7.28889 0.0298598 7.12222 0.084082 6.96667C0.138304 6.81111 0.232526 6.66667 0.366749 6.53333L6.50008 0.4C6.76675 0.133333 7.08364 0 7.45075 0C7.81786 0 8.1343 0.133333 8.40008 0.4C8.66586 0.666666 8.79919 0.983555 8.80008 1.35067C8.80097 1.71778 8.66764 2.03422 8.40008 2.3L3.19875 7.5ZM22.3321 7.43333L17.1654 2.26667C16.921 2.02222 16.7987 1.71111 16.7987 1.33333C16.7987 0.955556 16.921 0.644444 17.1654 0.4C17.4099 0.155555 17.721 0.0333335 18.0987 0.0333335C18.4765 0.0333335 18.7876 0.155555 19.0321 0.4L25.1654 6.53333C25.2987 6.66667 25.3934 6.81111 25.4494 6.96667C25.5054 7.12222 25.533 7.28889 25.5321 7.46667C25.5312 7.64444 25.5036 7.81111 25.4494 7.96667C25.3952 8.12222 25.3005 8.26667 25.1654 8.4L19.0321 14.5333C18.7654 14.8 18.4543 14.928 18.0987 14.9173C17.7432 14.9067 17.4321 14.7676 17.1654 14.5C16.8987 14.2324 16.7654 13.916 16.7654 13.5507C16.7654 13.1853 16.8987 12.8684 17.1654 12.6L22.3321 7.43333Z" fill="#4F4B5C"/>
</svg>
